:SAMPLES-PER-SECOND 30
:FULLY-SPECIFIED
:DEGREES
414
root  61.9505 39.8931 -6.9469 -172.089 -37.0255 -175.588
RightUpLeg  -7.57562 -14.1913 -10.3527
RightLeg  -3.28531 -54.4771 11.9972
RightFoot  7.02433 -0.297852 2.12497
RightToes  0.000482159 0.542163 -0.142577
Spine  40.5224 -3.19362 6.84843
Spine1  9.97622 0.699038 -4.03065
HEad  -35.6193 20.1366 -25.3777
LeftShoulder1  8.65906 -16.9106 -36.3054
LeftArm  -14.8752 2.94209 -35.9464
LeftForeArm  15.0096 -67.9502 -27.9766
LeftHand  -0.25398 0.0180481 5.50724
RightShoulder  5.93169 12.0495 32.188
RightArm  -14.6418 -2.84883 19.6199
RightForeArm  -21.3889 67.5657 31.7463
RightHand  -0.403766 -15.7297 3.12886
LeftUpLeg  -20.0359 10.0256 2.16067
LeftLeg  2.57267 48.5855 -8.93119
LeftFoot  -6.84022 -0.0580867 2.54359
LeftToes  1.06247e-005 4.65855e-005 -8.18504e-006
415
root  61.0726 39.9278 -7.23245 -175.066 -40.6555 -175.55
RightUpLeg  -4.942 -14.7541 -11.6031
RightLeg  3.46333 -46.4905 5.95964
RightFoot  3.14057 -0.167747 1.44312
RightToes  0.000482159 0.542163 -0.142577
Spine  37.7627 -3.16483 7.06443
Spine1  9.23077 0.247467 -3.04547
HEad  -31.7348 20.1792 -24.2693
LeftShoulder1  8.79648 -16.6095 -37.5822
LeftArm  -13.8852 6.86884 -34.9641
LeftForeArm  17.9516 -69.7352 -30.9196
LeftHand  -0.25398 0.0180481 5.50724
RightShoulder  5.78693 11.5264 32.5551
RightArm  -14.2227 -7.37507 19.7851
RightForeArm  -15.9485 70.6366 38.0998
RightHand  -0.399872 -17.8318 2.42866
LeftUpLeg  -16.2861 9.33103 1.32847
LeftLeg  3.50833 45.35 -8.23217
LeftFoot  -7.65242 -0.060848 3.30811
LeftToes  1.06247e-005 4.65855e-005 -8.18504e-006
416
root  60.1589 39.9835 -7.54281 -177.804 -44.8174 -175.795
RightUpLeg  -3.30306 -16.5497 -11.9518
RightLeg  9.03285 -30.8703 0.973742
RightFoot  -1.14825 -0.00352997 -0.0382891
RightToes  0.000482159 0.542163 -0.142577
Spine  34.8182 -3.05472 7.2545
Spine1  8.6814 -0.132901 -2.14181
HEad  -26.8181 19.2836 -22.1605
LeftShoulder1  8.90142 -16.543 -38.2278
LeftArm  -12.2883 9.29301 -34.0463
LeftForeArm  19.9526 -70.8223 -33.0548
LeftHand  -0.25398 0.0180481 5.50724
RightShoulder  5.57983 10.8472 32.9368
RightArm  -14.2306 -12.1486 19.7464
RightForeArm  -8.09074 73.4658 46.8087
RightHand  -0.304617 -19.1481 1.33605
LeftUpLeg  -11.9103 8.27793 0.27134
LeftLeg  3.24686 42.0647 -8.15206
LeftFoot  -8.33246 -0.034384 3.21236
LeftToes  1.06247e-005 4.65855e-005 -8.18504e-006
417
root  59.2597 40.0025 -7.889 179.821 -49.0005 -176.217
RightUpLeg  -2.70745 -18.6081 -11.5678
RightLeg  14.0195 -12.8101 -1.77874
RightFoot  -4.70365 -0.0021875 -0.450032
RightToes  0.000482159 0.542163 -0.142577
Spine  31.6631 -2.76156 6.92371
Spine1  8.58341 -0.379465 -1.55516
HEad  -21.6819 18.1633 -19.9913
LeftShoulder1  8.80485 -16.3895 -38.0913
LeftArm  -11.0228 10.6786 -34.0038
LeftForeArm  22.1231 -71.6888 -34.9061
LeftHand  -0.25398 0.0180481 5.50724
RightShoulder  5.4292 10.3212 33.3257
RightArm  -14.8826 -16.5839 19.9807
RightForeArm  1.15371 75.4526 56.3803
RightHand  -0.22068 -19.6574 0.607382
LeftUpLeg  -7.67152 7.20332 -0.880541
LeftLeg  3.14445 38.8032 -7.72565
LeftFoot  -9.00438 -0.00030784 2.6599
LeftToes  1.06247e-005 4.65855e-005 -8.18504e-006
418
root  58.3561 39.9653 -8.26883 177.665 -53.0009 -176.441
RightUpLeg  -2.98463 -13.3962 -10.7031
RightLeg  19.8569 -3.9627 -2.08035
RightFoot  -6.84809 -0.0615291 0.378688
RightToes  0.000482159 0.542163 -0.142577
Spine  28.3843 -2.3481 5.96866
Spine1  8.76657 -0.694602 -0.900843
HEad  -17.1159 17.4462 -17.9817
LeftShoulder1  8.60676 -16.01 -37.9466
LeftArm  -10.5739 11.6608 -34.3863
LeftForeArm  25.7084 -72.8899 -37.8122
LeftHand  -0.25398 0.0180481 5.50724
RightShoulder  5.31841 9.97538 33.5114
RightArm  -15.8601 -20.1523 20.5877
RightForeArm  10.2887 76.6158 65.0716
RightHand  -0.279112 -19.9987 1.01742
LeftUpLeg  -4.02484 6.43448 -1.87413
LeftLeg  3.95197 35.5798 -6.62363
LeftFoot  -9.98707 0.0363818 1.99173
LeftToes  1.06247e-005 4.65855e-005 -8.18504e-006
419
root  57.401 39.923 -8.63215 175.678 -57.1494 -176.092
RightUpLeg  -4.21443 -4.30566 -8.94639
RightLeg  25.8613 -2.7285 -1.68581
RightFoot  -7.80622 -0.0834483 0.965758
RightToes  0.000482159 0.542163 -0.142577
Spine  25.0263 -2.13082 4.82046
Spine1  8.75898 -1.33891 0.161275
HEad  -13.4444 16.9507 -16.0402
LeftShoulder1  8.40383 -15.5018 -38.057
LeftArm  -10.6653 12.5329 -34.6561
LeftForeArm  31.0729 -74.455 -42.5271
LeftHand  -0.25398 0.0180481 5.50724
RightShoulder  5.19365 9.65134 33.5354
RightArm  -16.725 -22.8909 21.2488
RightForeArm  19.5688 77.3497 73.7637
RightHand  -0.386911 -20.3314 1.78464
LeftUpLeg  -0.789566 5.8737 -2.52779
LeftLeg  4.45635 32.1305 -5.76779
LeftFoot  -11.0309 0.0626346 1.34635
LeftToes  1.06247e-005 4.65855e-005 -8.18504e-006
420
root  56.4207 39.8803 -8.93724 174.165 -61.756 -175.471
RightUpLeg  -6.53765 2.11048 -6.82148
RightLeg  31.0018 -3.1716 -2.30081
RightFoot  -8.33713 -0.0706919 0.527883
RightToes  0.000482159 0.542163 -0.142577
Spine  21.7701 -2.2566 3.43689
Spine1  8.49199 -2.35179 1.53986
HEad  -10.6357 16.1946 -14.5638
LeftShoulder1  8.24083 -15.0293 -38.2978
LeftArm  -10.8966 13.0451 -34.7054
LeftForeArm  38.0264 -76.0312 -48.8608
LeftHand  -0.25398 0.0180481 5.50724
RightShoulder  5.07458 9.3417 33.5606
RightArm  -17.6392 -25.1024 21.8085
RightForeArm  29.9217 77.7781 84.0108
RightHand  -0.376987 -20.2502 1.71954
LeftUpLeg  1.89839 5.31415 -3.04906
LeftLeg  4.49517 28.2861 -5.31085
LeftFoot  -11.9505 0.0761284 0.812709
LeftToes  1.06247e-005 4.65855e-005 -8.18504e-006
421
root  55.4599 39.8229 -9.19542 173.066 -66.5864 -174.85
RightUpLeg  -9.51634 4.0789 -5.34948
RightLeg  34.2691 -4.12185 -3.25984
RightFoot  -8.50015 -0.0511493 -0.244234
RightToes  0.000482159 0.542163 -0.142577
Spine  18.8433 -2.57097 1.7201
Spine1  8.48714 -3.47476 2.90604
HEad  -8.94085 15.1947 -13.5859
LeftShoulder1  8.20426 -14.7373 -38.7882
LeftArm  -11.0606 12.7535 -34.4166
LeftForeArm  46.081 -77.3475 -56.2447
LeftHand  -0.25398 0.0180481 5.50724
RightShoulder  5.02911 9.15243 33.7904
RightArm  -19.1487 -26.8249 22.2906
RightForeArm  40.6343 77.7937 94.9525
RightHand  -0.282761 -19.7516 1.08221
LeftUpLeg  4.03807 4.82362 -3.51402
LeftLeg  4.61603 24.1875 -4.94762
LeftFoot  -12.8074 0.0855214 0.650717
LeftToes  1.06247e-005 4.65855e-005 -8.18504e-006
422
root  54.4982 39.7905 -9.40561 171.806 -70.8246 -173.837
RightUpLeg  -12.6543 1.66934 -4.19483
RightLeg  34.5996 -5.07288 -3.99607
RightFoot  -7.73917 -0.0376874 -0.478111
RightToes  0.000482159 0.542163 -0.142577
Spine  16.1785 -2.80778 0.375253
Spine1  9.17247 -4.20676 3.75284
HEad  -8.41556 14.0424 -12.4944
LeftShoulder1  8.32752 -14.6883 -39.5491
LeftArm  -11.0036 11.5226 -33.7771
LeftForeArm  54.0599 -78.2763 -63.7812
LeftHand  -0.25398 0.0180481 5.50724
RightShoulder  5.05673 9.05962 34.2989
RightArm  -21.3631 -27.9874 22.6801
RightForeArm  50.2387 77.4303 104.72
RightHand  -0.263568 -19.453 0.969955
LeftUpLeg  6.21873 4.43093 -3.7851
LeftLeg  4.134 20.6151 -4.80245
LeftFoot  -13.3715 0.0972619 0.956072
LeftToes  1.06247e-005 4.65855e-005 -8.18504e-006
423
root  53.5137 39.7443 -9.57076 170.799 -73.7979 -173.012
RightUpLeg  -15.7231 -2.43675 -2.79462
RightLeg  32.2421 -6.17304 -4.41445
RightFoot  -6.28692 -0.0289105 -0.311372
RightToes  0.000482159 0.542163 -0.142577
Spine  13.7727 -2.67114 -0.482651
Spine1  10.3113 -4.20843 3.81784
HEad  -8.31773 12.532 -11.0619
LeftShoulder1  8.49921 -14.7822 -40.2166
LeftArm  -10.7064 9.74955 -33.1921
LeftForeArm  60.7176 -78.8278 -70.4694
LeftHand  -0.25398 0.0180481 5.50724
RightShoulder  5.09 8.97657 34.826
RightArm  -23.7639 -28.6898 22.9795
RightForeArm  57.9978 76.8413 112.607
RightHand  -0.32215 -19.5418 1.42072
LeftUpLeg  8.63004 4.09062 -4.08593
LeftLeg  3.06082 18.2741 -4.76379
LeftFoot  -13.8228 0.108559 1.18041
LeftToes  1.06247e-005 4.65855e-005 -8.18504e-006
424
root  52.4837 39.5803 -9.70884 171.346 -75.6208 -174.125
RightUpLeg  -18.2116 -6.36197 -1.23072
RightLeg  28.0601 -6.66407 -4.06926
RightFoot  -4.81568 -0.0288683 -0.0679513
RightToes  0.000482159 0.542163 -0.142577
Spine  12.1851 -2.19712 -1.52508
Spine1  11.2581 -3.68989 3.34042
HEad  -8.05203 10.9262 -9.63112
LeftShoulder1  8.59609 -14.8482 -40.557
LeftArm  -10.4275 8.13346 -32.9821
LeftForeArm  66.7697 -79.1642 -76.8408
LeftHand  -0.25398 0.0180481 5.50724
RightShoulder  5.10326 8.94395 35.036
RightArm  -25.7307 -28.9804 23.2151
RightForeArm  63.5751 76.1762 118.563
RightHand  -0.31856 -19.3915 1.41295
LeftUpLeg  11.1405 3.90474 -4.74221
LeftLeg  2.6968 16.8758 -4.59389
LeftFoot  -14.8528 0.112422 0.78783
LeftToes  1.06247e-005 4.65855e-005 -8.18504e-006
425
root  51.3711 39.2988 -9.83275 174.07 -76.9651 -177.807
RightUpLeg  -19.8772 -11.3462 0.647323
RightLeg  22.4267 -5.04175 -2.71146
RightFoot  -3.46194 -0.0524343 0.414463
RightToes  0.000482159 0.542163 -0.142577
Spine  11.3296 -1.744 -3.06671
Spine1  11.9094 -3.19129 2.79692
HEad  -7.67762 9.71362 -8.45071
LeftShoulder1  8.61694 -14.8233 -40.7243
LeftArm  -10.4112 7.09682 -32.9184
LeftForeArm  73.8783 -79.3765 -84.3137
LeftHand  -0.25398 0.0180481 5.50724
RightShoulder  5.11614 9.01176 34.919
RightArm  -27.024 -28.7772 23.3382
RightForeArm  67.2415 75.5353 122.915
RightHand  -0.200105 -18.7328 0.533276
LeftUpLeg  13.6595 3.91112 -5.70938
LeftLeg  3.39354 15.614 -4.40125
LeftFoot  -16.3968 0.0980951 -0.00489754
LeftToes  1.06247e-005 4.65855e-005 -8.18504e-006
